<svg xmlns="http://www.w3.org/2000/svg" width="100px" height="100px" viewBox="0 0 100 100">
	<style>
		#svg-external {
			fill: rgba(0,0,0,.3);
		}
	</style>
	<g id="svg-external">
		<path d="M70.2,30c-1.6-1.6-3.6-2.5-6-2.5h-28c-2.3,0-4.3,0.8-6,2.5c-1.6,1.6-2.5,3.6-2.5,6v28.1c0,2.3,0.8,4.3,2.5,6
		c1.6,1.6,3.6,2.5,6,2.5h28.1c2.3,0,4.3-0.8,6-2.5c1.6-1.6,2.5-3.6,2.5-6V36C72.7,33.7,71.9,31.7,70.2,30z M65.2,51
		c0,0.8-0.4,1.4-1.1,1.7c-0.3,0.1-0.5,0.1-0.7,0.1c-0.5,0-1-0.2-1.3-0.6L57.9,48L42.3,63.6c-0.4,0.4-0.8,0.6-1.3,0.6
		s-0.9-0.2-1.3-0.6l-3-3c-0.4-0.4-0.6-0.8-0.6-1.3s0.2-0.9,0.6-1.3l15.5-15.5L48,38.3c-0.6-0.6-0.7-1.2-0.4-2
		c0.3-0.8,0.9-1.1,1.7-1.1h14c0.5,0,0.9,0.2,1.3,0.6c0.4,0.4,0.6,0.8,0.6,1.3V51z"/>
	</g>
</svg>


