<?xml version="1.0" encoding="utf-8"?>
<!-- Generator: Adobe Illustrator 15.0.0, SVG Export Plug-In . SVG Version: 6.00 Build 0)  -->
<!DOCTYPE svg PUBLIC "-//W3C//DTD SVG 1.1//EN" "http://www.w3.org/Graphics/SVG/1.1/DTD/svg11.dtd">
<svg version="1.1" id="Calque_1" xmlns="http://www.w3.org/2000/svg" xmlns:xlink="http://www.w3.org/1999/xlink" x="0px" y="0px"
	 width="100px" height="100px" viewBox="0 0 100 100" enable-background="new 0 0 100 100" xml:space="preserve">
<g id="svg-blog">
	<path d="M63.2,72.8c3,0,5.399-2.399,5.399-5.399V32.7c0-3-2.399-5.4-5.399-5.4H36.8c-3,0-5.4,2.4-5.4,5.4v34.6c0,3,2.4,5.4,5.4,5.4
		L63.2,72.8L63.2,72.8z M64.5,67.3L64.5,67.3c0,0.7-0.6,1.3-1.3,1.3H36.8c-0.7,0-1.3-0.6-1.3-1.3V33.2c0-0.7,0.6-1.3,1.3-1.3h26.4
		c0.7,0,1.3,0.5,1.3,1.3C64.5,34,64.5,67.3,64.5,67.3z"/>
	<rect x="39.5" y="38.8" width="21" height="3.3"/>
	<rect x="39.5" y="46.8" width="21" height="3.3"/>
	<rect x="39.5" y="54.8" width="21" height="3.3"/>
</g>
<g id="svg-conf">
	<path d="M66.2,27.5H33.8c-3,0-5.4,2.4-5.4,5.4v23.6c0,3,2.4,5.4,5.4,5.4h10.6L33.9,72.4c-0.8,0.8-0.8,2.1,0,3
		c0.4,0.398,0.9,0.6,1.5,0.6s1.1-0.2,1.5-0.6L50,62.3L63.1,75.4C63.5,75.8,64,76,64.6,76c0.602,0,1.102-0.2,1.5-0.6
		c0.801-0.801,0.801-2.102,0-3L55.6,61.9H66.2c3,0,5.399-2.4,5.399-5.4V32.9C71.6,29.9,69.2,27.5,66.2,27.5z M67.5,56.6
		c0,0.7-0.6,1.301-1.3,1.301H33.8c-0.7,0-1.3-0.601-1.3-1.301V34.7h35V56.6L67.5,56.6z"/>
	<path d="M46.4,26.4h7.2c0.7,0,1.2-0.5,1.2-1.2c0-0.7-0.5-1.2-1.2-1.2h-7.2c-0.7,0-1.2,0.5-1.2,1.2C45.2,25.8,45.7,26.4,46.4,26.4z"
		/>
</g>
<g id="svg-external">
	<path d="M70.2,29.95c-1.601-1.6-3.601-2.5-6-2.5h-28c-2.3,0-4.3,0.8-6,2.5c-1.6,1.6-2.5,3.6-2.5,6v28.1c0,2.302,0.8,4.302,2.5,6
		c1.6,1.601,3.6,2.5,6,2.5h28.1c2.3,0,4.3-0.8,6-2.5c1.601-1.6,2.5-3.6,2.5-6v-28.1C72.7,33.65,71.9,31.65,70.2,29.95z M65.2,50.95
		c0,0.8-0.4,1.399-1.101,1.7c-0.301,0.1-0.5,0.1-0.699,0.1c-0.5,0-1-0.2-1.301-0.6l-4.199-4.2L42.3,63.55
		c-0.4,0.4-0.8,0.601-1.3,0.601s-0.9-0.199-1.3-0.601l-3-3c-0.4-0.399-0.6-0.8-0.6-1.3s0.2-0.898,0.6-1.3l15.5-15.5l-4.2-4.2
		c-0.6-0.6-0.7-1.2-0.4-2c0.301-0.8,0.9-1.1,1.7-1.1h14c0.5,0,0.9,0.2,1.3,0.6c0.4,0.4,0.602,0.8,0.602,1.3L65.2,50.95L65.2,50.95z"
		/>
</g>
<g id="svg-ailleurs">
	<path d="M66.814,29.646c-0.627-0.627-1.41-0.979-2.35-0.979h-10.97c-0.901,0-1.685,0.313-2.351,0.979
		c-0.627,0.627-0.979,1.41-0.979,2.351v11.008c0,0.901,0.313,1.686,0.979,2.351c0.625,0.627,1.41,0.979,2.351,0.979h11.008
		c0.901,0,1.685-0.313,2.351-0.979c0.627-0.626,0.979-1.41,0.979-2.351V31.996C67.795,31.095,67.48,30.312,66.814,29.646z
		 M64.855,37.872c0,0.313-0.156,0.549-0.431,0.666c-0.116,0.039-0.194,0.039-0.274,0.039c-0.194,0-0.392-0.078-0.508-0.234
		l-1.646-1.646l-6.111,6.11c-0.156,0.156-0.312,0.236-0.51,0.236c-0.195,0-0.354-0.08-0.51-0.236l-1.176-1.175
		c-0.155-0.156-0.234-0.313-0.234-0.509c0-0.196,0.079-0.352,0.234-0.509l6.072-6.072l-1.646-1.646
		c-0.234-0.234-0.274-0.47-0.157-0.783c0.118-0.314,0.354-0.431,0.666-0.431h5.484c0.197,0,0.354,0.078,0.51,0.235
		c0.156,0.157,0.234,0.313,0.234,0.509v5.446H64.855z"/>
	<g id="svg-blog_1_">
		<path d="M63.2,72.8c3,0,5.399-2.399,5.399-5.399V32.7c0-3-2.399-5.4-5.399-5.4H36.8c-3,0-5.4,2.4-5.4,5.4v34.6
			c0,3,2.4,5.4,5.4,5.4L63.2,72.8L63.2,72.8z M64.5,67.3L64.5,67.3c0,0.7-0.6,1.3-1.3,1.3H36.8c-0.7,0-1.3-0.6-1.3-1.3V33.2
			c0-0.7,0.6-1.3,1.3-1.3h26.4c0.7,0,1.3,0.5,1.3,1.3C64.5,34,64.5,67.3,64.5,67.3z"/>
		<polygon points="39.5,38.8 50.984,38.8 50.969,42.1 39.5,42.1 		"/>
		<rect x="39.5" y="46.8" width="21" height="3.3"/>
		<rect x="39.5" y="54.8" width="21" height="3.3"/>
	</g>
</g>
<g id="twitter">
	<path d="M76.688,33.23c-1.947,0.863-4.042,1.448-6.241,1.709c2.242-1.344,3.965-3.472,4.779-6.007
		c-2.102,1.244-4.427,2.149-6.899,2.634c-1.982-2.11-4.806-3.429-7.931-3.429c-5.999,0-10.862,4.864-10.862,10.862
		c0,0.853,0.097,1.683,0.281,2.476c-9.027-0.453-17.034-4.779-22.39-11.35c-0.936,1.605-1.473,3.469-1.473,5.461
		c0,3.769,1.918,7.095,4.833,9.043c-1.78-0.055-3.455-0.545-4.92-1.357c-0.002,0.043-0.002,0.091-0.002,0.136
		c0,5.265,3.745,9.653,8.713,10.652c-0.911,0.25-1.872,0.383-2.863,0.383c-0.698,0-1.38-0.069-2.043-0.198
		c1.381,4.316,5.394,7.456,10.147,7.545c-3.716,2.913-8.402,4.649-13.492,4.649c-0.875,0-1.739-0.05-2.59-0.152
		c4.807,3.083,10.519,4.883,16.652,4.883c19.982,0,30.91-16.555,30.91-30.91c0-0.472-0.01-0.94-0.033-1.404
		c2.124-1.534,3.966-3.445,5.421-5.624h0.003V33.23z"/>
</g>
</svg>
