<?xml version="1.0" encoding="utf-8"?>
<!-- Generator: Adobe Illustrator 15.0.0, SVG Export Plug-In . SVG Version: 6.00 Build 0)  -->
<!DOCTYPE svg PUBLIC "-//W3C//DTD SVG 1.1//EN" "http://www.w3.org/Graphics/SVG/1.1/DTD/svg11.dtd">
<svg version="1.1" id="Calque_1" xmlns="http://www.w3.org/2000/svg" xmlns:xlink="http://www.w3.org/1999/xlink" x="0px" y="0px"
	 width="100px" height="100px" viewBox="0 0 100 100" enable-background="new 0 0 100 100" xml:space="preserve">
<g id="hamburger">
	<polygon points="0.629,51.04 50,62.712 99.371,51.04"/>
	<path d="M90.127,58.445l-38.959,9.211L50,67.934l-1.168-0.276l-38.956-9.21c-1.928,0.888-3.271,2.824-3.271,5.085
		c0,3.098,2.512,5.608,5.61,5.608h75.571c3.1,0,5.61-2.512,5.61-5.608C93.396,61.271,92.051,59.334,90.127,58.445z"/>
	<path d="M94.514,74.221H5.493c-1.337,0-2.423,1.086-2.423,2.422c0,5.953,4.845,10.795,10.796,10.795h72.274
		c5.951,0,10.791-4.842,10.791-10.795C96.932,75.307,95.848,74.221,94.514,74.221z"/>
	<path d="M95.184,38.273C85.564,22.174,68.674,12.562,50,12.562S14.435,22.174,4.815,38.273c-0.938,1.569-0.96,3.522-0.058,5.113
		c0.903,1.59,2.591,2.573,4.419,2.573h81.647c1.827,0,3.516-0.983,4.418-2.573C96.145,41.796,96.123,39.843,95.184,38.273z"/>
</g>
<g id="twitter">
	<path d="M2.02,20.215C-1.512,21.78-5.313,22.841-9.3,23.315c4.068-2.438,7.192-6.298,8.668-10.896
		c-3.809,2.257-8.028,3.898-12.513,4.777c-3.596-3.827-8.717-6.219-14.384-6.219c-10.88,0-19.701,8.822-19.701,19.701
		c0,1.547,0.176,3.052,0.509,4.491c-16.371-0.821-30.894-8.667-40.609-20.586c-1.697,2.91-2.67,6.292-2.67,9.906
		c0,6.835,3.479,12.867,8.766,16.401c-3.23-0.099-6.266-0.987-8.924-2.461c-0.003,0.078-0.003,0.164-0.003,0.246
		c0,9.549,6.791,17.508,15.803,19.32c-1.653,0.452-3.394,0.692-5.193,0.692c-1.267,0-2.503-0.123-3.705-0.357
		c2.505,7.828,9.783,13.524,18.405,13.684c-6.741,5.284-15.24,8.432-24.472,8.432c-1.588,0-3.154-0.091-4.698-0.275
		c8.719,5.592,19.077,8.854,30.202,8.854c36.243,0,56.061-30.024,56.061-56.061c0-0.856-0.018-1.706-0.059-2.547
		c3.852-2.781,7.192-6.249,9.833-10.199H2.02z"/>
</g>
<g id="google">
	<path d="M44.002,76.558c0,6.512-4.025,11.656-15.418,12.071c-6.679-3.798-12.274-9.276-16.215-15.863
		c2.055-5.074,8.474-8.937,15.814-8.858c2.084,0.024,4.025,0.36,5.79,0.93c4.849,3.372,8.761,5.476,9.742,9.319
		c0.185,0.775,0.288,1.578,0.288,2.396V76.558z M50.507,5.588c-12.832,0-24.39,5.446-32.498,14.149
		c3.201-1.775,6.985-2.833,11.008-2.833c5.817,0,22.244,0,22.244,0l-4.972,5.215h-5.836c4.117,2.361,6.313,7.218,6.313,12.58
		c0,4.917-2.728,8.88-6.573,11.889c-3.755,2.931-4.467,4.158-4.467,6.655c0,2.128,4.486,5.299,6.548,6.847
		c7.184,5.389,8.64,8.777,8.64,15.519c0,6.825-5.98,13.626-16.124,15.936c4.89,1.852,10.187,2.868,15.722,2.868
		c24.528,0,44.411-19.883,44.411-44.411c0-24.529-19.883-44.411-44.411-44.411L50.507,5.588z M72.713,38.896v11.103h-5.552V38.896
		H56.059v-5.552h11.103V22.242h5.552v11.103h11.103v5.552H72.713z M37.821,35.031c1.035,7.877-2.413,12.94-8.409,12.764
		c-5.993-0.182-11.693-5.681-12.729-13.553c-1.036-7.875,2.987-13.903,8.98-13.724C31.657,20.697,36.786,27.159,37.821,35.031
		L37.821,35.031z M25.255,61.281c-6.479,0-11.979,2.236-15.859,5.54c-2.126-5.188-3.3-10.864-3.3-16.819
		c0-4.926,0.802-9.658,2.281-14.087c0.638,8.628,6.708,15.282,16.737,15.282c0.74,0,1.456-0.038,2.158-0.087
		c-0.688,1.32-1.182,2.792-1.182,4.335c0,2.599,1.429,4.084,3.199,5.801c-1.336,0-2.626,0.035-4.039,0.035H25.255z"/>
</g>
<g id="dribbble">
	<path d="M24.256,25.433c-0.604,0.859-5.66,7.658-17.607,12.136C1.141,27.455-4.958,19.144-5.888,17.901
		c2.527-0.609,5.161-0.933,7.872-0.933c8.536,0,16.336,3.205,22.272,8.467V25.433z M4.332,50.858
		c-17.327,5.604-26.548,20.867-27.309,22.171c-5.367-5.954-8.637-13.834-8.637-22.466c0-0.34,0.005-0.686,0.017-1.027
		c1.467,0.03,17.752,0.237,34.531-4.782c0.96,1.882,1.88,3.792,2.727,5.698c-0.444,0.126-0.886,0.259-1.325,0.399L4.332,50.858z
		 M1.984,5.56c-24.829,0-44.954,20.125-44.954,44.954c0,24.828,20.125,44.954,44.954,44.954s44.955-20.126,44.955-44.954
		C46.938,25.685,26.812,5.56,1.984,5.56z M1.984,89.848c-21.692,0-39.335-17.641-39.335-39.334
		c0-21.692,17.643-39.335,39.335-39.335c21.693,0,39.334,17.643,39.334,39.335C41.318,72.207,23.677,89.848,1.984,89.848z
		 M11.458,47.43c-0.697-1.635-1.446-3.263-2.228-4.865c12.421-5.07,18.051-12.289,18.759-13.247c4.679,5.718,7.513,13,7.587,20.927
		c-1.106-0.229-12.219-2.486-23.396-1.081c-0.236-0.576-0.478-1.152-0.725-1.734H11.458z M0.157,39.588
		c-15.717,4.176-29.556,4.116-31.06,4.094c2.179-10.427,9.203-19.091,18.606-23.525c0.886,1.215,6.889,9.538,12.46,19.432H0.157z
		 M7.719,56.089c0.071-0.027,0.146-0.053,0.222-0.077c4.717,12.261,6.667,22.533,7.167,25.479c-4.036,1.717-8.47,2.668-13.124,2.668
		c-7.765,0-14.926-2.648-20.623-7.091c0.604-1.237,7.406-14.376,26.357-20.984V56.089z M14.227,54.459
		c10.531-1.686,19.783,1.075,20.93,1.438c-1.498,9.348-6.865,17.423-14.399,22.52C20.411,76.375,18.622,66.537,14.227,54.459z"/>
</g>
<g id="github">
	<path d="M-94.101,77.365c-1.67,0-3.335-0.863-5.061-2.594c-0.68-0.678-0.68-1.781,0-2.46c0.677-0.68,1.782-0.68,2.46,0
		c1.063,1.062,1.915,1.579,2.601,1.579s1.536-0.518,2.601-1.579c0.678-0.68,1.782-0.68,2.459,0c0.681,0.679,0.681,1.782,0,2.46
		C-90.766,76.502-92.43,77.365-94.101,77.365z M-138.674,50.689c0,4.341,0.37,8.281,1.115,11.813
		c0.743,3.53,1.788,6.593,3.134,9.187c1.344,2.592,3.047,4.866,5.104,6.82c2.062,1.953,4.298,3.562,6.708,4.827
		c2.416,1.268,5.178,2.291,8.29,3.071c3.11,0.779,6.276,1.329,9.493,1.641c3.22,0.309,6.765,0.467,10.634,0.467
		c3.871,0,7.422-0.158,10.657-0.467c3.234-0.312,6.406-0.861,9.52-1.641c3.111-0.78,5.879-1.804,8.311-3.071
		c2.427-1.265,4.682-2.874,6.755-4.827c2.071-1.954,3.784-4.229,5.131-6.82c1.348-2.594,2.397-5.656,3.155-9.187
		c0.76-3.532,1.138-7.473,1.138-11.813c0-7.781-2.416-14.484-7.245-20.107c0.28-0.749,0.521-1.611,0.722-2.577
		c0.199-0.969,0.395-2.334,0.579-4.103c0.185-1.766,0.117-3.803-0.209-6.115c-0.327-2.312-0.937-4.674-1.834-7.079l-0.696-0.142
		c-0.465-0.099-1.222-0.063-2.276,0.092c-1.051,0.158-2.281,0.438-3.69,0.843c-1.409,0.408-3.227,1.213-5.455,2.416
		c-2.227,1.202-4.578,2.729-7.056,4.573c-4.209-1.281-10.015-2.623-17.412-2.623c-7.397,0-13.216,1.341-17.458,2.623
		c-2.479-1.844-4.837-3.359-7.084-4.545c-2.245-1.186-4.038-2.002-5.384-2.438c-1.347-0.438-2.592-0.718-3.738-0.843
		c-1.145-0.127-1.879-0.166-2.206-0.12c-0.326,0.05-0.565,0.101-0.718,0.164c-0.897,2.41-1.518,4.769-1.858,7.079
		c-0.34,2.312-0.419,4.345-0.231,6.094c0.185,1.75,0.386,3.126,0.604,4.125c0.218,1.001,0.465,1.861,0.746,2.579
		c-4.829,5.594-7.245,12.297-7.245,20.107L-138.674,50.689z M-126.786,60.603c0-5.049,1.855-9.63,5.572-13.741
		c1.113-1.254,2.405-2.204,3.877-2.849c1.472-0.642,3.142-1.008,5.014-1.096c1.872-0.084,3.662-0.068,5.362,0.051
		c1.704,0.125,3.81,0.288,6.314,0.498c2.508,0.209,4.677,0.313,6.502,0.313c1.822,0,3.991-0.104,6.496-0.313
		c2.51-0.21,4.614-0.373,6.317-0.498c1.704-0.12,3.49-0.136,5.362-0.051c1.875,0.087,3.554,0.454,5.036,1.096
		c1.485,0.646,2.785,1.595,3.901,2.849c3.713,4.111,5.572,8.692,5.572,13.741c0,2.962-0.311,5.602-0.929,7.919
		c-0.617,2.316-1.4,4.259-2.345,5.825c-0.944,1.567-2.266,2.893-3.97,3.974c-1.703,1.082-3.351,1.914-4.945,2.507
		c-1.594,0.591-3.651,1.054-6.176,1.384c-2.524,0.331-4.782,0.533-6.78,0.603c-1.997,0.07-4.507,0.105-7.541,0.105
		c-3.037,0-5.542-0.035-7.522-0.105c-1.981-0.069-4.231-0.271-6.755-0.603c-2.525-0.33-4.582-0.793-6.176-1.384
		c-1.594-0.593-3.243-1.431-4.946-2.507c-1.704-1.081-3.026-2.406-3.973-3.974c-0.941-1.566-1.725-3.509-2.345-5.825
		C-126.478,66.204-126.786,63.564-126.786,60.603L-126.786,60.603z M-116.388,57.871c0,4.617,2.492,8.357,5.572,8.357
		s5.572-3.74,5.572-8.357s-2.492-8.357-5.572-8.357S-116.388,53.254-116.388,57.871z M-82.958,57.871
		c0,4.617,2.493,8.357,5.572,8.357c3.08,0,5.571-3.74,5.571-8.357s-2.491-8.357-5.571-8.357
		C-80.465,49.514-82.958,53.254-82.958,57.871z"/>
</g>
</svg>
